<svg width="152" height="152" viewBox="0 0 152 152" fill="none" xmlns="http://www.w3.org/2000/svg">
<path d="M130.889 24.1427H105.556V41.0316H122.444C122.444 41.0316 130.889 41.0316 130.889 49.476V100.143C130.889 108.587 122.444 108.587 122.444 108.587H105.556V125.476H130.889C140.203 125.476 147.778 117.901 147.778 108.587V41.0316C147.778 31.7173 140.203 24.1427 130.889 24.1427Z" fill="#FFAC33"/>
<path d="M114 25.3333H12.6667V135.111C12.6667 139.59 14.446 143.886 17.6133 147.053C20.7806 150.221 25.0763 152 29.5556 152H97.1111C101.59 152 105.886 150.221 109.053 147.053C112.221 143.886 114 139.59 114 135.111V25.3333Z" fill="#FFCC4D"/>
<path d="M35.8889 135.111C34.7691 135.111 33.6951 134.666 32.9033 133.874C32.1115 133.083 31.6667 132.009 31.6667 130.889V63.3333C31.6667 62.2135 32.1115 61.1396 32.9033 60.3478C33.6951 59.556 34.7691 59.1111 35.8889 59.1111C37.0087 59.1111 38.0826 59.556 38.8744 60.3478C39.6663 61.1396 40.1111 62.2135 40.1111 63.3333V130.889C40.1111 132.009 39.6663 133.083 38.8744 133.874C38.0826 134.666 37.0087 135.111 35.8889 135.111ZM63.3333 135.111C62.2135 135.111 61.1396 134.666 60.3478 133.874C59.556 133.083 59.1111 132.009 59.1111 130.889V63.3333C59.1111 62.2135 59.556 61.1396 60.3478 60.3478C61.1396 59.556 62.2135 59.1111 63.3333 59.1111C64.4531 59.1111 65.5271 59.556 66.3189 60.3478C67.1107 61.1396 67.5556 62.2135 67.5556 63.3333V130.889C67.5556 132.009 67.1107 133.083 66.3189 133.874C65.5271 134.666 64.4531 135.111 63.3333 135.111ZM90.7778 135.111C89.658 135.111 88.584 134.666 87.7922 133.874C87.0004 133.083 86.5556 132.009 86.5556 130.889V63.3333C86.5556 62.2135 87.0004 61.1396 87.7922 60.3478C88.584 59.556 89.658 59.1111 90.7778 59.1111C91.8976 59.1111 92.9715 59.556 93.7633 60.3478C94.5552 61.1396 95 62.2135 95 63.3333V130.889C95 132.009 94.5552 133.083 93.7633 133.874C92.9715 134.666 91.8976 135.111 90.7778 135.111Z" fill="#F4900C"/>
<path d="M12.6667 21.1111V52.5456C15.1578 53.998 18.0204 54.8889 21.1111 54.8889C24.4658 54.886 27.7437 53.8841 30.5268 52.0109C33.3098 50.1378 35.472 47.4782 36.7376 44.3713C38.2153 45.6464 40.1196 46.4444 42.2222 46.4444C45.0807 46.4444 47.5971 45.0173 49.1256 42.8429C50.6435 45.2377 52.7416 47.2105 55.2253 48.5782C57.7091 49.9459 60.4979 50.6643 63.3333 50.6667C65.9368 50.6609 68.5033 50.0504 70.8305 48.8832C73.1576 47.7159 75.1817 46.0239 76.7431 43.9407C77.5111 45.9196 78.8587 47.6205 80.6095 48.8206C82.3604 50.0207 84.4329 50.6642 86.5556 50.6667C90.5625 50.6667 94.0078 48.4078 95.7938 45.1187L96.4144 43.5944C98.5644 44.7943 100.982 45.4319 103.444 45.448C107.586 45.448 111.319 43.7338 114 40.9893V21.1111H12.6667Z" fill="#FFAC33"/>
<path d="M101.333 0H16.8889C13.5295 0 10.3077 1.33452 7.9322 3.70998C5.55674 6.08544 4.22222 9.30726 4.22222 12.6667V29.5556C4.23044 33.4651 5.59472 37.2506 8.08237 40.2666C10.57 43.2825 14.0269 45.342 17.8635 46.0938C21.7 46.8455 25.6786 46.243 29.1205 44.3889C32.5624 42.5349 35.2545 39.5442 36.7376 35.9269C38.2153 37.202 40.1196 38 42.2222 38C45.0807 38 47.5971 36.5729 49.1256 34.3984C50.6435 36.7933 52.7416 38.7661 55.2253 40.1338C57.7091 41.5015 60.4979 42.2198 63.3333 42.2222C65.9368 42.2165 68.5033 41.6059 70.8305 40.4387C73.1576 39.2715 75.1817 37.5795 76.7431 35.4962C77.5111 37.4751 78.8587 39.176 80.6095 40.3762C82.3604 41.5763 84.4329 42.2197 86.5556 42.2222C90.5624 42.2222 94.0078 39.9633 95.7938 36.6742C97.4742 37.4976 99.3362 38 101.333 38C104.693 38 107.915 36.6655 110.29 34.29C112.665 31.9146 114 28.6927 114 25.3333V12.6667C114 9.30726 112.665 6.08544 110.29 3.70998C107.915 1.33452 104.693 0 101.333 0V0Z" fill="#E8E8E8"/>
</svg>
